<?xml version="1.0" encoding="utf-8"?>
<!-- Generator: Adobe Illustrator 24.3.0, SVG Export Plug-In . SVG Version: 6.00 Build 0)  -->
<svg version="1.1" id="Layer_1" xmlns="http://www.w3.org/2000/svg" xmlns:xlink="http://www.w3.org/1999/xlink" x="0px" y="0px"
	 viewBox="0 0 24 24" style="enable-background:new 0 0 24 24;" xml:space="preserve">
<g>
	<path d="M20,13.7H7.8v-1.3c0-0.2-0.2-0.3-0.4-0.2l-3.6,2.2c-0.2,0.1-0.2,0.3,0,0.4L7.4,17c0.2,0.1,0.4,0,0.4-0.2v-1.3H20
		c0.3,0,0.5-0.2,0.5-0.5v-0.9C20.5,13.9,20.3,13.7,20,13.7z"/>
	<path d="M16.2,10.3v1.3c0,0.2,0.2,0.3,0.4,0.2l3.6-2.2c0.2-0.1,0.2-0.3,0-0.4L16.6,7c-0.2-0.1-0.4,0-0.4,0.2v1.3H4
		C3.7,8.5,3.5,8.7,3.5,9v0.9c0,0.3,0.2,0.5,0.5,0.5H16.2z"/>
</g>
</svg>
